<svg width="31" height="31" viewBox="0 0 31 31" fill="none" xmlns="http://www.w3.org/2000/svg">
<g clip-path="url(#clip0_2_291)">
<path opacity="0.8" d="M29.1436 0H1.82261C0.816009 0 0 0.814302 0 1.81879V29.1474C0 30.1519 0.816009 30.9662 1.82261 30.9662H29.1436C30.1502 30.9662 30.9662 30.1519 30.9662 29.1474V1.81879C30.9662 0.814302 30.1502 0 29.1436 0Z" fill="url(#paint0_linear_2_291)"/>
<path d="M15.3547 27.0698C10.9839 27.0698 7.26874 23.8566 6.51572 19.4283C6.50257 19.349 6.46321 19.2765 6.40391 19.2221C6.34461 19.1678 6.26878 19.1349 6.18854 19.1286C4.79926 19.0227 3.71094 17.812 3.71094 16.3733C3.71094 15.0062 4.66002 13.8597 5.96875 13.646C6.05903 13.6313 6.14034 13.5828 6.19621 13.5106C6.25208 13.4383 6.27835 13.3475 6.26971 13.2566C6.24286 12.9831 6.23037 12.7307 6.23037 12.4846C6.23037 7.80645 10.3233 4 15.3547 4C20.386 4 24.4764 7.80769 24.4764 12.4858C24.4764 12.7351 24.4639 12.9843 24.4371 13.2578C24.4285 13.3487 24.4547 13.4395 24.5106 13.5118C24.5665 13.5841 24.6478 13.6325 24.7381 13.6473C26.0462 13.861 26.9959 15.0075 26.9959 16.3745C26.9959 17.8132 25.9075 19.0239 24.5183 19.1298C24.4382 19.1361 24.3625 19.1688 24.3032 19.2229C24.244 19.277 24.2045 19.3493 24.1911 19.4283C23.4406 23.8566 19.7235 27.0698 15.3547 27.0698Z" fill="#FFE888"/>
<path d="M15.3546 4.36176C20.1868 4.36176 24.1186 8.00682 24.1186 12.4868C24.1186 12.7217 24.1061 12.9629 24.0811 13.2239C24.0633 13.4058 24.1156 13.5876 24.2273 13.7323C24.339 13.8771 24.5017 13.974 24.6824 14.0034C25.8157 14.1903 26.638 15.1873 26.638 16.3755C26.638 17.6273 25.6958 18.6809 24.4932 18.7725C24.3328 18.7847 24.1812 18.8501 24.0624 18.9583C23.9436 19.0665 23.8644 19.2112 23.8376 19.3695C23.4957 21.3996 22.4646 23.2506 20.9173 24.6121C19.3823 25.9656 17.4045 26.7126 15.3561 26.7126C13.3077 26.7126 11.33 25.9656 9.79496 24.6121C8.24548 23.2512 7.21217 21.3999 6.86843 19.3688C6.84181 19.2106 6.76283 19.0658 6.64411 18.9576C6.52539 18.8494 6.37376 18.784 6.21344 18.7719C5.01335 18.6797 4.07114 17.6267 4.07114 16.3749C4.07114 15.1848 4.89346 14.1872 6.02674 14.0028C6.20745 13.9734 6.37018 13.8765 6.48186 13.7317C6.59354 13.5869 6.64581 13.4052 6.62803 13.2233C6.60243 12.9622 6.59057 12.7211 6.59057 12.4862C6.59057 8.0062 10.5243 4.36113 15.3546 4.36113V4.36176ZM15.3546 3.64209C10.1153 3.64209 5.86939 7.60181 5.86939 12.4862C5.86939 12.7585 5.885 13.027 5.9106 13.2962C4.46076 13.5324 3.35059 14.819 3.35059 16.378C3.35059 18.0255 4.59001 19.3719 6.16036 19.4934C6.92712 24.0046 10.7503 27.4347 15.3546 27.4347C19.9589 27.4347 23.7839 24.0046 24.5488 19.4934C26.1198 19.3732 27.3586 18.0267 27.3586 16.378C27.3586 14.8203 26.2484 13.5324 24.7985 13.2962C24.8241 13.0302 24.8391 12.7616 24.8391 12.4862C24.8391 7.60181 20.5932 3.64209 15.3546 3.64209Z" fill="white"/>
<path d="M15.2803 24.0101C13.4727 24.0101 12.0023 22.5004 12.0023 20.6454C12.0006 20.6129 12.0056 20.5804 12.0169 20.5499C12.0282 20.5194 12.0456 20.4915 12.0681 20.4679C12.0905 20.4444 12.1176 20.4256 12.1475 20.4128C12.1775 20.3999 12.2097 20.3933 12.2423 20.3933C12.2749 20.3933 12.3072 20.3999 12.3372 20.4128C12.3671 20.4256 12.3941 20.4444 12.4166 20.4679C12.4391 20.4915 12.4565 20.5194 12.4678 20.5499C12.4791 20.5804 12.4841 20.6129 12.4824 20.6454C12.4824 22.2368 13.7375 23.5316 15.2803 23.5316C16.8232 23.5316 18.0782 22.2368 18.0782 20.6454C18.0782 20.5818 18.1036 20.5208 18.1487 20.4758C18.1937 20.4308 18.2549 20.4055 18.3186 20.4055C18.3824 20.4055 18.4435 20.4308 18.4886 20.4758C18.5337 20.5208 18.559 20.5818 18.559 20.6454C18.559 22.5004 17.088 24.0101 15.2803 24.0101Z" fill="#FF404A"/>
<path d="M14.4768 7.27965C14.7371 7.27965 14.9482 7.06261 14.9482 6.79488C14.9482 6.52716 14.7371 6.31012 14.4768 6.31012C14.2164 6.31012 14.0054 6.52716 14.0054 6.79488C14.0054 7.06261 14.2164 7.27965 14.4768 7.27965Z" fill="#FF404A"/>
<path d="M14.4768 8.89561C14.7371 8.89561 14.9482 8.67857 14.9482 8.41085C14.9482 8.14312 14.7371 7.92609 14.4768 7.92609C14.2164 7.92609 14.0054 8.14312 14.0054 8.41085C14.0054 8.67857 14.2164 8.89561 14.4768 8.89561Z" fill="#FF404A"/>
<path d="M14.4768 10.5115C14.7371 10.5115 14.9482 10.2945 14.9482 10.0268C14.9482 9.75903 14.7371 9.54199 14.4768 9.54199C14.2164 9.54199 14.0054 9.75903 14.0054 10.0268C14.0054 10.2945 14.2164 10.5115 14.4768 10.5115Z" fill="#FF404A"/>
<path d="M16.3611 7.27965C16.6214 7.27965 16.8325 7.06261 16.8325 6.79488C16.8325 6.52716 16.6214 6.31012 16.3611 6.31012C16.1007 6.31012 15.8896 6.52716 15.8896 6.79488C15.8896 7.06261 16.1007 7.27965 16.3611 7.27965Z" fill="#FF404A"/>
<path d="M16.3611 8.89561C16.6214 8.89561 16.8325 8.67857 16.8325 8.41085C16.8325 8.14312 16.6214 7.92609 16.3611 7.92609C16.1007 7.92609 15.8896 8.14312 15.8896 8.41085C15.8896 8.67857 16.1007 8.89561 16.3611 8.89561Z" fill="#FF404A"/>
<path d="M16.3611 10.5115C16.6214 10.5115 16.8325 10.2945 16.8325 10.0268C16.8325 9.75903 16.6214 9.54199 16.3611 9.54199C16.1007 9.54199 15.8896 9.75903 15.8896 10.0268C15.8896 10.2945 16.1007 10.5115 16.3611 10.5115Z" fill="#FF404A"/>
<path d="M13.799 15.0224C13.761 15.0225 13.7235 15.0136 13.6896 14.9964C13.6558 14.9791 13.6265 14.9541 13.6042 14.9234C13.046 14.1582 12.4179 13.7563 11.7366 13.7302C10.4785 13.6834 9.39579 14.9252 9.38517 14.9377C9.36467 14.9617 9.33963 14.9815 9.31149 14.9958C9.28334 15.0102 9.25263 15.0189 9.22112 15.0214C9.18961 15.0239 9.15791 15.0202 9.12783 15.0105C9.09775 15.0008 9.06988 14.9853 9.04581 14.9648C9.02175 14.9443 9.00195 14.9194 8.98757 14.8913C8.97318 14.8632 8.96447 14.8325 8.96195 14.8011C8.95686 14.7376 8.97725 14.6747 9.01865 14.6262C9.0686 14.5676 10.2568 13.1931 11.7529 13.2498C12.5896 13.2809 13.3432 13.7482 13.9926 14.6405C14.0185 14.6762 14.0341 14.7184 14.0376 14.7624C14.0411 14.8064 14.0324 14.8505 14.0123 14.8898C13.9923 14.9292 13.9618 14.9623 13.9242 14.9855C13.8866 15.0086 13.8432 15.021 13.799 15.0212V15.0224Z" fill="#FF404A"/>
<path d="M21.5792 15.0224C21.5412 15.0225 21.5038 15.0136 21.47 14.9963C21.4363 14.9791 21.4071 14.9541 21.385 14.9234C20.8268 14.1582 20.1986 13.7563 19.5174 13.7302C18.2555 13.6834 17.1765 14.9252 17.1659 14.9377C17.1454 14.9617 17.1204 14.9815 17.0922 14.9958C17.0641 15.0102 17.0334 15.0189 17.0019 15.0214C16.9704 15.0239 16.9387 15.0202 16.9086 15.0105C16.8785 15.0008 16.8506 14.9853 16.8266 14.9648C16.8025 14.9443 16.7827 14.9194 16.7683 14.8913C16.7539 14.8632 16.7452 14.8325 16.7427 14.8011C16.7402 14.7696 16.7439 14.738 16.7536 14.708C16.7634 14.678 16.7789 14.6502 16.7994 14.6262C16.8494 14.5676 18.037 13.1931 19.533 13.2498C20.3697 13.2809 21.1233 13.7482 21.7733 14.6405C21.7919 14.6659 21.8053 14.6948 21.8126 14.7254C21.82 14.7559 21.8213 14.7877 21.8164 14.8188C21.8114 14.8499 21.8004 14.8797 21.7839 14.9065C21.7674 14.9333 21.7458 14.9566 21.7203 14.9751C21.6795 15.0056 21.6301 15.0222 21.5792 15.0224Z" fill="#FF404A"/>
</g>
<defs>
<linearGradient id="paint0_linear_2_291" x1="0" y1="15.4831" x2="30.9662" y2="15.4831" gradientUnits="userSpaceOnUse">
<stop stop-color="#FF1500"/>
<stop offset="1" stop-color="#FF404A"/>
</linearGradient>
<clipPath id="clip0_2_291">
<rect width="30.9662" height="30.9662" fill="white"/>
</clipPath>
</defs>
</svg>
